<?xml version="1.0" encoding="utf-8"?>
<!-- Generator: Adobe Illustrator 22.1.0, SVG Export Plug-In . SVG Version: 6.00 Build 0)  -->
<svg version="1.1" id="Layer_1" xmlns="http://www.w3.org/2000/svg" xmlns:xlink="http://www.w3.org/1999/xlink" x="0px" y="0px"
	 viewBox="0 0 102 115" style="enable-background:new 0 0 102 115;" xml:space="preserve">
<style type="text/css">
	.st0{fill:#330000;}
	.st1{fill:none;}
	.st2{fill:url(#SVGID_1_);}
	.st3{fill:#C86E14;}
	.st4{fill:url(#SVGID_2_);}
	.st5{fill:url(#SVGID_3_);}
	.st6{fill:url(#SVGID_4_);}
	.st7{fill:url(#SVGID_5_);}
	.st8{fill:url(#SVGID_6_);}
	.st9{fill:url(#SVGID_7_);}
	.st10{fill:url(#SVGID_8_);}
	.st11{fill:url(#SVGID_9_);}
	.st12{fill:url(#SVGID_10_);}
	.st13{fill:url(#SVGID_11_);}
	.st14{fill:url(#SVGID_12_);}
	.st15{fill:url(#SVGID_13_);}
	.st16{fill:url(#SVGID_14_);}
	.st17{fill:url(#SVGID_15_);}
	.st18{fill:url(#SVGID_16_);}
	.st19{fill:url(#SVGID_17_);}
	.st20{fill:url(#SVGID_18_);}
	.st21{fill:url(#SVGID_19_);}
	.st22{fill:url(#SVGID_20_);}
	.st23{fill:#8D4A02;}
	.st24{fill:url(#SVGID_21_);}
	.st25{fill:url(#SVGID_22_);}
	.st26{fill:url(#SVGID_23_);}
	.st27{fill:url(#SVGID_24_);}
	.st28{fill:#FCB813;}
	.st29{fill:#CB7A17;}
	.st30{fill:#975006;}
	.st31{fill:#D99814;}
	.st32{fill:#B76E11;}
	.st33{fill:#D89016;}
	.st34{fill:url(#SVGID_25_);}
	.st35{fill:url(#SVGID_26_);}
	.st36{fill:url(#SVGID_27_);}
	.st37{fill:url(#SVGID_28_);}
	.st38{fill:#C07414;}
</style>
<g>
	<path class="st0" d="M51,13.9c-14.4,0-26.3,2.7-36.8,8.3V65c0,9.1,3.4,16.8,10,22.1c5.9,4.8,24.7,13.1,26.8,14
		c2.1-0.9,20.9-9.2,26.8-14c6.5-5.3,10-13,10-22.1V22.2C77.3,16.6,65.4,13.9,51,13.9z"/>
	<path class="st1" d="M44.6,20.8c0.2,0.1,0.6,0.3,0.9,0.3c0.5,0,0.8-0.3,0.8-0.7c0-0.4-0.2-0.6-0.8-0.8c-0.7-0.2-1.1-0.6-1.1-1.1
		c0-0.6,0.5-1.1,1.3-1.1c0.4,0,0.7,0.1,0.9,0.2l-0.1,0.4c-0.1-0.1-0.4-0.2-0.8-0.2c-0.6,0-0.8,0.3-0.8,0.6c0,0.4,0.2,0.6,0.8,0.8
		c0.7,0.3,1,0.6,1,1.2c0,0.6-0.5,1.2-1.4,1.2c-0.4,0-0.8-0.1-1-0.3L44.6,20.8z M47.7,19.3c0-0.3,0-0.5,0-0.8h0.5l0,0.5h0
		c0.2-0.3,0.4-0.5,0.9-0.5c0.4,0,0.7,0.2,0.8,0.6h0c0.1-0.2,0.2-0.3,0.3-0.4c0.2-0.1,0.4-0.2,0.6-0.2c0.4,0,1,0.3,1,1.3v1.7h-0.5
		v-1.6c0-0.6-0.2-0.9-0.6-0.9c-0.3,0-0.5,0.2-0.6,0.5c0,0.1,0,0.2,0,0.3v1.8h-0.5v-1.7c0-0.5-0.2-0.8-0.6-0.8
		c-0.3,0-0.6,0.3-0.7,0.5c0,0.1,0,0.2,0,0.3v1.8h-0.5V19.3z M54.3,21.4l0-0.4h0c-0.2,0.2-0.5,0.4-0.9,0.4c-0.6,0-0.9-0.4-0.9-0.8
		c0-0.7,0.6-1.1,1.7-1.1v-0.1c0-0.2-0.1-0.7-0.7-0.7c-0.3,0-0.6,0.1-0.8,0.2l-0.1-0.3c0.2-0.2,0.6-0.3,1-0.3c0.9,0,1.1,0.6,1.1,1.2
		v1.1c0,0.3,0,0.5,0,0.7H54.3z M54.2,19.9c-0.6,0-1.2,0.1-1.2,0.7c0,0.3,0.2,0.5,0.5,0.5c0.4,0,0.6-0.2,0.7-0.5c0-0.1,0-0.1,0-0.2
		V19.9z M55.5,17.2h0.5v4.3h-0.5V17.2z M57,17.2h0.5v4.3H57V17.2z"/>
	<g>
		
			<radialGradient id="SVGID_1_" cx="6760.0752" cy="-363.7582" r="223.5764" gradientTransform="matrix(3.275781e-17 0.535 -0.2675 1.637892e-17 -71.3009 -3587.0437)" gradientUnits="userSpaceOnUse">
			<stop  offset="0" style="stop-color:#FFDC00"/>
			<stop  offset="0.35" style="stop-color:#FFBE00"/>
			<stop  offset="1" style="stop-color:#C86E14"/>
		</radialGradient>
		<path class="st2" d="M51,100.3c2.1-0.9,20.5-9,26.3-13.7C83.7,81.4,87,73.9,87,65V22.6c-10-5.3-22.1-8-36-8s-26,2.7-36,8V65
			c0,8.9,3.3,16.4,9.7,21.6C30.5,91.3,48.9,99.4,51,100.3z"/>
		<path class="st3" d="M74,95.5v3.7h0.7v-1.5h0.1c0,0.1,1,1.5,1,1.5h0.8c0,0-1-1.5-1.1-1.6c0.5-0.1,0.8-0.5,0.8-1
			c0-0.5-0.3-1.1-1.2-1.1H74z M74.9,96c0.6,0,0.6,0.3,0.6,0.5c0,0.3-0.1,0.6-0.9,0.6h-0.1V96H74.9z M77.5,97.3
			c0,1.4-1.1,2.5-2.5,2.5c-1.4,0-2.5-1.1-2.5-2.5c0-1.4,1.1-2.5,2.5-2.5C76.4,94.8,77.5,95.9,77.5,97.3 M75,94.3c-1.7,0-3,1.4-3,3
			c0,1.7,1.4,3,3,3c1.7,0,3-1.4,3-3C78.1,95.6,76.7,94.3,75,94.3"/>
		
			<radialGradient id="SVGID_2_" cx="-253.0828" cy="-224.4996" r="131.8707" gradientTransform="matrix(9.258082e-14 0.9 -0.45 4.629041e-14 -74.9915 257.3044)" gradientUnits="userSpaceOnUse">
			<stop  offset="0" style="stop-color:#5C3333"/>
			<stop  offset="0.35" style="stop-color:#471919"/>
			<stop  offset="0.85" style="stop-color:#330000"/>
		</radialGradient>
		<path class="st4" d="M18.3,40.8c15.5-14.2,34.2-17.9,51.6-17.9c4.7,0,9.3,0.3,13.8,0.7V65c0,8-2.9,14.4-8.5,19
			c-5,4.1-20,10.8-24.2,12.7C46.7,94.8,31.7,88,26.8,84c-5.5-4.5-8.5-11.1-8.5-19V40.8z M21.5,62.5c0,6.6,3.1,10,9.3,10
			c3.8,0,7-0.9,9.4-2.5V42.8H34v23.6c-0.7,0.5-1.7,0.8-3,0.8c-2.9,0-3.3-2.6-3.3-4.4v-20h-6.3V62.5 M49.8,72
			c0.6,0.2,1.5,0.4,2.8,0.4c7,0,10.9-6.3,10.9-15.4c0-9.1-4.1-14.8-11.6-14.8c-3.4,0-6.2,0.8-8.4,2.2v40.8h6.3V72z M49.8,66.9
			c0.4,0.2,1.2,0.4,2,0.4c3.6,0,5.3-3.3,5.3-10.2c0-7-1.5-9.9-5.1-9.9c-0.8,0-1.7,0.2-2.2,0.5V66.9z M64.9,50.3
			c0,3.3,0.9,5.8,6.1,8.9c2.8,1.6,3.9,2.7,3.9,4.7c0.1,2.2-1.5,3.5-3.8,3.5c-2,0-4.4-1.1-6-2.5v5.8c2,1.2,4.4,1.9,6.9,1.9
			c6.2,0,8.9-4.4,9.1-8.4c0.1-3.7-0.9-6.4-6.1-9.5c-2.3-1.4-4.2-2.3-4.1-4.5c0.1-2.2,1.9-3,3.7-3c2.2,0,4.3,1.2,5.6,2.6v-5.4
			c-1.1-0.8-3.4-2.1-6.9-2C69.2,42.3,64.9,45.3,64.9,50.3"/>
		
			<radialGradient id="SVGID_3_" cx="26" cy="29.5112" r="119.375" gradientTransform="matrix(1.028679e-13 1 -0.7 7.200752e-14 46.6579 3.5112)" gradientUnits="userSpaceOnUse">
			<stop  offset="0" style="stop-color:#FFDC00"/>
			<stop  offset="0.35" style="stop-color:#FFBE00"/>
			<stop  offset="1" style="stop-color:#C86E14"/>
		</radialGradient>
		<path class="st5" d="M75,63.8c0-2-1.2-3-3.9-4.7c-5.2-3-6.1-5.5-6.1-8.9c0-5.1,4.3-8,8.4-8.2c3.4-0.1,5.8,1.2,6.9,2v5.4
			c-1.3-1.3-3.4-2.6-5.6-2.6c-1.8,0-3.6,0.8-3.7,3c-0.1,2.3,1.8,3.2,4.1,4.5c5.2,3.1,6.2,5.8,6.1,9.5c-0.1,4-2.9,8.4-9.1,8.4
			c-2.5,0-4.9-0.8-6.9-1.9v-5.8c1.6,1.4,4,2.5,6,2.5C73.5,67.3,75,66,75,63.8z M40.3,42.8H34v23.6c-0.7,0.5-1.7,0.8-3,0.8
			c-2.9,0-3.3-2.6-3.3-4.4v-20h-6.3v19.7c0,6.6,3.1,10,9.3,10c3.8,0,7-0.9,9.4-2.5V42.8z M49.8,72v13.2h-6.3V44.4
			c2.3-1.5,5-2.2,8.4-2.2c7.5,0,11.6,5.7,11.6,14.8c0,9.1-4,15.4-10.9,15.4C51.3,72.4,50.4,72.2,49.8,72z M49.8,66.9
			c0.4,0.2,1.2,0.4,2,0.4c3.6,0,5.3-3.3,5.3-10.2c0-7-1.5-9.9-5.1-9.9c-0.8,0-1.7,0.2-2.2,0.5V66.9z"/>
		<g>
			<linearGradient id="SVGID_4_" gradientUnits="userSpaceOnUse" x1="48.4377" y1="99.3591" x2="15.6817" y2="67.727">
				<stop  offset="4.557292e-03" style="stop-color:#B76E11"/>
				<stop  offset="0.1588" style="stop-color:#C27514"/>
				<stop  offset="0.3814" style="stop-color:#C97916"/>
				<stop  offset="1" style="stop-color:#CB7A17"/>
			</linearGradient>
			<path class="st6" d="M18.3,65c0,7.9,2.9,14.5,8.5,19c4.9,4,20,10.8,24.2,12.7l0-0.5c-3.5-1.6-19-8.5-23.9-12.5
				c-5.4-4.4-8.3-10.9-8.3-18.7L18.3,65z"/>
			<linearGradient id="SVGID_5_" gradientUnits="userSpaceOnUse" x1="53.5586" y1="99.3553" x2="86.3146" y2="67.7232">
				<stop  offset="0" style="stop-color:#FFC10E"/>
				<stop  offset="1" style="stop-color:#D99814"/>
			</linearGradient>
			<path class="st7" d="M51,96.7c4.2-1.8,19.2-8.6,24.2-12.7c5.6-4.6,8.5-11,8.5-19l-0.4,0c0,7.8-2.8,14.1-8.3,18.7
				C70.1,87.6,55.6,94.2,51,96.2L51,96.7z"/>
			<linearGradient id="SVGID_6_" gradientUnits="userSpaceOnUse" x1="18.3345" y1="40.8402" x2="82.0034" y2="18.6683">
				<stop  offset="0" style="stop-color:#E39F15"/>
				<stop  offset="0.975" style="stop-color:#8D4A02"/>
			</linearGradient>
			<path class="st8" d="M83.2,23.9c-4.8-0.4-9.1-0.6-13.3-0.6c-21.4,0-38.1,5.8-51.2,17.7l-0.5-0.2c15.5-14.2,34.2-17.9,51.6-17.9
				c4.7,0,9.3,0.3,13.8,0.7L83.2,23.9z"/>
			<linearGradient id="SVGID_7_" gradientUnits="userSpaceOnUse" x1="52.8008" y1="67.7847" x2="57.9521" y2="57.5425">
				<stop  offset="5.000000e-02" style="stop-color:#FFD300"/>
				<stop  offset="0.95" style="stop-color:#B76E11"/>
			</linearGradient>
			<path class="st9" d="M51.8,67.3c3.6,0,5.3-3.3,5.3-10.2l-0.4,0c0,5.5-1.1,9.7-4.9,9.7V67.3z"/>
			<linearGradient id="SVGID_8_" gradientUnits="userSpaceOnUse" x1="51.8226" y1="67.0496" x2="49.7741" y2="66.7981">
				<stop  offset="5.000000e-02" style="stop-color:#FFD300"/>
				<stop  offset="0.95" style="stop-color:#EFAF13"/>
			</linearGradient>
			<path class="st10" d="M51.8,66.8c-0.6,0-1.2-0.1-1.6-0.2l-0.5,0.3c0.4,0.2,1.2,0.4,2,0.4V66.8z"/>
			<linearGradient id="SVGID_9_" gradientUnits="userSpaceOnUse" x1="49.8243" y1="47.8962" x2="52.0104" y2="47.3227">
				<stop  offset="5.000000e-02" style="stop-color:#A15C0A"/>
				<stop  offset="0.95" style="stop-color:#8D4A02"/>
			</linearGradient>
			<path class="st11" d="M50.2,48c0.4-0.2,1.1-0.3,1.8-0.3l0-0.4c-0.8,0-1.7,0.2-2.2,0.5L50.2,48z"/>
			<linearGradient id="SVGID_10_" gradientUnits="userSpaceOnUse" x1="57.9926" y1="56.6814" x2="52.9385" y2="46.7193">
				<stop  offset="5.000000e-02" style="stop-color:#B76E11"/>
				<stop  offset="0.95" style="stop-color:#8D4A02"/>
			</linearGradient>
			<path class="st12" d="M56.7,57.1c0-6-1-9.5-4.7-9.5l0-0.4c3.6,0,5.1,2.9,5.1,9.9L56.7,57.1z"/>
			<linearGradient id="SVGID_11_" gradientUnits="userSpaceOnUse" x1="72.8126" y1="41.1376" x2="63.6611" y2="49.4066">
				<stop  offset="5.000000e-02" style="stop-color:#FFCA05"/>
				<stop  offset="0.95" style="stop-color:#C07414"/>
			</linearGradient>
			<path class="st13" d="M64.5,50.3c0-5.1,4.3-8.5,8.8-8.6l0,0.4c-4.1,0.1-8.4,3.1-8.4,8.2L64.5,50.3z"/>
			<linearGradient id="SVGID_12_" gradientUnits="userSpaceOnUse" x1="70.7467" y1="49.8578" x2="74.3266" y2="46.7458">
				<stop  offset="5.000000e-02" style="stop-color:#A2610A"/>
				<stop  offset="0.95" style="stop-color:#8D4A02"/>
			</linearGradient>
			<path class="st14" d="M74.6,47.1c-1.8,0-3.6,0.8-3.7,3l0.4,0c0-0.6,0.3-2.6,3.2-2.6L74.6,47.1z"/>
			<linearGradient id="SVGID_13_" gradientUnits="userSpaceOnUse" x1="80.9487" y1="50.2113" x2="74.6725" y2="46.9442">
				<stop  offset="0" style="stop-color:#E29618"/>
				<stop  offset="0.95" style="stop-color:#8D4A02"/>
			</linearGradient>
			<path class="st15" d="M80.2,49.6c-1.3-1.3-3.4-2.6-5.6-2.6l-0.1,0.4c2.6,0,4.8,1.7,6.1,3.2L80.2,49.6z"/>
			<linearGradient id="SVGID_14_" gradientUnits="userSpaceOnUse" x1="73.3779" y1="41.5709" x2="80.6825" y2="43.9302">
				<stop  offset="5.000000e-02" style="stop-color:#FFCA05"/>
				<stop  offset="0.95" style="stop-color:#EC9D00"/>
			</linearGradient>
			<path class="st16" d="M80.7,44l-0.5,0.2c-1.1-0.8-3.4-2.1-6.9-2l0-0.4C77.1,41.6,79.7,43.2,80.7,44z"/>
			<linearGradient id="SVGID_15_" gradientUnits="userSpaceOnUse" x1="82.294" y1="64.8102" x2="73.0289" y2="73.8833">
				<stop  offset="5.000000e-02" style="stop-color:#975006"/>
				<stop  offset="0.95" style="stop-color:#8D4A02"/>
			</linearGradient>
			<path class="st17" d="M81.2,64.1c-0.1,4-2.9,8.4-9.1,8.4v0.5c5.7,0,9.4-3.8,9.5-8.8L81.2,64.1z"/>
			<linearGradient id="SVGID_16_" gradientUnits="userSpaceOnUse" x1="64.7457" y1="70.8562" x2="72.0868" y2="72.9751">
				<stop  offset="0" style="stop-color:#975006"/>
				<stop  offset="0.95" style="stop-color:#8D4A02"/>
			</linearGradient>
			<path class="st18" d="M65.2,70.5c2,1.2,4.4,1.9,6.9,1.9v0.5c-2.7,0-5.1-0.8-7.3-2.1L65.2,70.5z"/>
			<linearGradient id="SVGID_17_" gradientUnits="userSpaceOnUse" x1="71.1338" y1="67.4576" x2="64.5294" y2="64.2507">
				<stop  offset="5.000000e-02" style="stop-color:#FFD300"/>
				<stop  offset="1" style="stop-color:#EFAF13"/>
			</linearGradient>
			<path class="st19" d="M71.2,67.3c-2,0-4.4-1.1-6-2.5l-0.4-1c1.6,1.7,4.2,3.1,6.4,3.1L71.2,67.3z"/>
			<linearGradient id="SVGID_18_" gradientUnits="userSpaceOnUse" x1="71.4916" y1="67.637" x2="75.2649" y2="64.1672">
				<stop  offset="5.000000e-02" style="stop-color:#FFD300"/>
				<stop  offset="0.95" style="stop-color:#E5A812"/>
			</linearGradient>
			<path class="st20" d="M75,63.8c0.1,2.2-1.5,3.5-3.8,3.5l0-0.5c2,0,3.4-1,3.3-3L75,63.8z"/>
			<linearGradient id="SVGID_19_" gradientUnits="userSpaceOnUse" x1="64.4028" y1="50.389" x2="74.1394" y2="64.3981">
				<stop  offset="4.574424e-03" style="stop-color:#C07414"/>
				<stop  offset="0.4" style="stop-color:#A15C0A"/>
				<stop  offset="0.6" style="stop-color:#A15C0A"/>
				<stop  offset="1" style="stop-color:#E5A812"/>
			</linearGradient>
			<path class="st21" d="M74.5,63.8c0-1.7-0.9-2.6-3.7-4.3c-5.3-3.1-6.3-5.7-6.3-9.2l0.5,0c0,3.3,0.9,5.8,6.1,8.9
				c2.8,1.6,3.9,2.7,3.9,4.7L74.5,63.8z"/>
			<linearGradient id="SVGID_20_" gradientUnits="userSpaceOnUse" x1="71.669" y1="49.5159" x2="82.0988" y2="63.7664">
				<stop  offset="0" style="stop-color:#A2610A"/>
				<stop  offset="0.4" style="stop-color:#F1B70F"/>
				<stop  offset="0.6" style="stop-color:#F1B70F"/>
				<stop  offset="0.95" style="stop-color:#975006"/>
			</linearGradient>
			<path class="st22" d="M75.3,54.2c5.4,3.2,6.5,6.2,6.3,9.9l-0.4,0c0.1-3.7-0.9-6.4-6.1-9.5c-2.3-1.4-4.2-2.3-4.1-4.5l0.4,0
				C71.3,52.1,73.1,52.9,75.3,54.2"/>
			<polygon class="st23" points="49.8,85.2 43.5,85.2 43,85.7 50.2,85.7 			"/>
			<linearGradient id="SVGID_21_" gradientUnits="userSpaceOnUse" x1="49.728" y1="72.2363" x2="52.6021" y2="72.6812">
				<stop  offset="5.000000e-02" style="stop-color:#975006"/>
				<stop  offset="0.95" style="stop-color:#8D4A02"/>
			</linearGradient>
			<path class="st24" d="M52.6,72.8c-0.9,0-1.7-0.1-2.4-0.2L49.8,72c0.6,0.2,1.5,0.4,2.8,0.4L52.6,72.8z"/>
			<linearGradient id="SVGID_22_" gradientUnits="userSpaceOnUse" x1="65.5514" y1="58.0955" x2="54.1834" y2="73.9742">
				<stop  offset="5.000000e-02" style="stop-color:#A15C00"/>
				<stop  offset="0.95" style="stop-color:#8D4A02"/>
			</linearGradient>
			<path class="st25" d="M64,57c0,8.2-3.3,15.9-11.4,15.9l0-0.5c7,0,10.9-6.3,10.9-15.4L64,57z"/>
			<linearGradient id="SVGID_23_" gradientUnits="userSpaceOnUse" x1="51.9187" y1="41.638" x2="42.9942" y2="43.946">
				<stop  offset="5.000000e-02" style="stop-color:#FFD000"/>
				<stop  offset="0.95" style="stop-color:#EC9D19"/>
			</linearGradient>
			<path class="st26" d="M43,44.1c2.4-1.6,5.4-2.4,8.9-2.4l0,0.5c-3.4,0-6.2,0.8-8.4,2.2L43,44.1z"/>
			<linearGradient id="SVGID_24_" gradientUnits="userSpaceOnUse" x1="53.5826" y1="40.4228" x2="65.5704" y2="55.7113">
				<stop  offset="5.304961e-02" style="stop-color:#FFD000"/>
				<stop  offset="0.5" style="stop-color:#DC8C00"/>
				<stop  offset="0.95" style="stop-color:#A85C00"/>
			</linearGradient>
			<path class="st27" d="M51.9,41.7c8.7,0,12,7.2,12,15.3l-0.5,0c0-9.1-4.1-14.8-11.6-14.8L51.9,41.7z"/>
			<path class="st28" d="M27.8,42.8h-6.3l-0.4-0.5h7.2L27.8,42.8z M40.3,42.8H34l-0.5-0.5h7.2L40.3,42.8z"/>
			<polygon class="st29" points="18.3,65 18.3,40.8 18.8,41 18.8,65 			"/>
			<polygon class="st30" points="80.7,50.8 80.7,44 80.2,44.2 80.2,49.6 			"/>
			<polygon class="st29" points="28.2,62.8 28.2,42.3 27.8,42.8 27.8,62.8 			"/>
			<polygon class="st31" points="83.2,65 83.2,23.9 83.7,23.5 83.7,65 			"/>
			<polygon class="st32" points="64.8,63.8 64.8,70.8 65.2,70.5 65.2,64.8 			"/>
			<polygon class="st33" points="34,66.4 34,42.8 33.6,42.3 33.6,66.2 			"/>
			<polygon class="st33" points="21.5,62.5 21.5,42.8 21.1,42.3 21.1,62.5 			"/>
			<linearGradient id="SVGID_25_" gradientUnits="userSpaceOnUse" x1="19.9067" y1="63.5508" x2="29.654" y2="74.04">
				<stop  offset="5.000000e-02" style="stop-color:#D89016"/>
				<stop  offset="0.95" style="stop-color:#8D4A02"/>
			</linearGradient>
			<path class="st34" d="M30.8,72.9c-6.7,0-9.8-3.8-9.8-10.4l0.4,0c0,6.6,3.1,10,9.3,10L30.8,72.9z"/>
			<linearGradient id="SVGID_26_" gradientUnits="userSpaceOnUse" x1="40.797" y1="70.4594" x2="30.8689" y2="73.0269">
				<stop  offset="5.000000e-02" style="stop-color:#A15C0A"/>
				<stop  offset="0.95" style="stop-color:#8D4A02"/>
			</linearGradient>
			<path class="st35" d="M40.7,70.2c-2.7,1.8-5.9,2.7-9.9,2.7l0-0.5c3.8,0,7-0.9,9.4-2.5L40.7,70.2z"/>
			<linearGradient id="SVGID_27_" gradientUnits="userSpaceOnUse" x1="31.0387" y1="67.0568" x2="34.0102" y2="66.3269">
				<stop  offset="5.000000e-02" style="stop-color:#FFD300"/>
				<stop  offset="0.95" style="stop-color:#FFC10E"/>
			</linearGradient>
			<path class="st36" d="M31.1,66.7c1,0,1.9-0.2,2.5-0.6l0.5,0.2c-0.7,0.5-1.7,0.8-3,0.8V66.7z"/>
			<linearGradient id="SVGID_28_" gradientUnits="userSpaceOnUse" x1="30.6526" y1="67.4717" x2="27.4008" y2="63.0286">
				<stop  offset="5.000000e-02" style="stop-color:#FFD300"/>
				<stop  offset="0.95" style="stop-color:#CB7A17"/>
			</linearGradient>
			<path class="st37" d="M31.1,67.2c-2.9,0-3.3-2.6-3.3-4.4l0.5,0c0,2.2,0.6,4,2.9,4V67.2z"/>
			<polygon class="st29" points="43,44.1 43,85.7 43.5,85.2 43.5,44.4 			"/>
			<path class="st38" d="M50.2,66.6V48l-0.5-0.3v19.2L50.2,66.6z M50.2,72.6v13.1l-0.5-0.5V72L50.2,72.6z"/>
			<polygon class="st38" points="40.7,70.2 40.7,42.3 40.3,42.8 40.3,70 			"/>
		</g>
	</g>
</g>
</svg>
